<mxfile host="app.diagrams.net" modified="2023-10-15T14:57:44.843Z" agent="Mozilla/5.0 (X11; Linux x86_64; rv:109.0) Gecko/20100101 Firefox/118.0" etag="FLVGG7sEVQLLAjWzhjs0" version="22.0.4" type="github">
  <diagram id="R2lEEEUBdFMjLlhIrx00" name="Page-1">
    <mxGraphModel dx="1114" dy="568" grid="1" gridSize="10" guides="1" tooltips="1" connect="1" arrows="1" fold="1" page="1" pageScale="1" pageWidth="850" pageHeight="1100" math="0" shadow="0" extFonts="Permanent Marker^https://fonts.googleapis.com/css?family=Permanent+Marker">
      <root>
        <mxCell id="0" />
        <mxCell id="1" parent="0" />
        <mxCell id="Yh4BVkky_7kEf2Jk04-v-19" style="rounded=0;orthogonalLoop=1;jettySize=auto;html=1;entryX=1;entryY=0.5;entryDx=0;entryDy=0;shape=link;exitX=0;exitY=0.5;exitDx=0;exitDy=0;" edge="1" parent="1" source="Yh4BVkky_7kEf2Jk04-v-1" target="Yh4BVkky_7kEf2Jk04-v-3">
          <mxGeometry relative="1" as="geometry" />
        </mxCell>
        <mxCell id="Yh4BVkky_7kEf2Jk04-v-20" style="rounded=0;orthogonalLoop=1;jettySize=auto;html=1;entryX=1;entryY=0.5;entryDx=0;entryDy=0;shape=link;exitX=0;exitY=0.5;exitDx=0;exitDy=0;" edge="1" parent="1" source="Yh4BVkky_7kEf2Jk04-v-1" target="Yh4BVkky_7kEf2Jk04-v-4">
          <mxGeometry relative="1" as="geometry">
            <mxPoint x="320" y="400" as="sourcePoint" />
          </mxGeometry>
        </mxCell>
        <mxCell id="Yh4BVkky_7kEf2Jk04-v-21" style="rounded=0;orthogonalLoop=1;jettySize=auto;html=1;entryX=1;entryY=0.5;entryDx=0;entryDy=0;shape=link;exitX=0;exitY=0.5;exitDx=0;exitDy=0;" edge="1" parent="1" source="Yh4BVkky_7kEf2Jk04-v-1" target="Yh4BVkky_7kEf2Jk04-v-10">
          <mxGeometry relative="1" as="geometry" />
        </mxCell>
        <mxCell id="Yh4BVkky_7kEf2Jk04-v-22" style="rounded=0;orthogonalLoop=1;jettySize=auto;html=1;entryX=1;entryY=0.5;entryDx=0;entryDy=0;shape=link;exitX=0;exitY=0.5;exitDx=0;exitDy=0;" edge="1" parent="1" source="Yh4BVkky_7kEf2Jk04-v-1" target="Yh4BVkky_7kEf2Jk04-v-8">
          <mxGeometry relative="1" as="geometry" />
        </mxCell>
        <mxCell id="Yh4BVkky_7kEf2Jk04-v-23" style="rounded=0;orthogonalLoop=1;jettySize=auto;html=1;entryX=1;entryY=0.5;entryDx=0;entryDy=0;shape=link;exitX=0;exitY=0.5;exitDx=0;exitDy=0;" edge="1" parent="1" source="Yh4BVkky_7kEf2Jk04-v-1" target="Yh4BVkky_7kEf2Jk04-v-5">
          <mxGeometry relative="1" as="geometry" />
        </mxCell>
        <mxCell id="Yh4BVkky_7kEf2Jk04-v-24" style="rounded=0;orthogonalLoop=1;jettySize=auto;html=1;entryX=1;entryY=0.5;entryDx=0;entryDy=0;shape=link;exitX=0;exitY=0.5;exitDx=0;exitDy=0;" edge="1" parent="1" source="Yh4BVkky_7kEf2Jk04-v-1" target="Yh4BVkky_7kEf2Jk04-v-6">
          <mxGeometry relative="1" as="geometry" />
        </mxCell>
        <mxCell id="Yh4BVkky_7kEf2Jk04-v-25" style="rounded=0;orthogonalLoop=1;jettySize=auto;html=1;entryX=1;entryY=0.5;entryDx=0;entryDy=0;shape=link;exitX=0;exitY=0.75;exitDx=0;exitDy=0;" edge="1" parent="1" source="Yh4BVkky_7kEf2Jk04-v-1" target="Yh4BVkky_7kEf2Jk04-v-7">
          <mxGeometry relative="1" as="geometry" />
        </mxCell>
        <mxCell id="Yh4BVkky_7kEf2Jk04-v-26" style="rounded=0;orthogonalLoop=1;jettySize=auto;html=1;entryX=0;entryY=0.5;entryDx=0;entryDy=0;shape=link;exitX=0;exitY=0.5;exitDx=0;exitDy=0;" edge="1" parent="1" source="Yh4BVkky_7kEf2Jk04-v-1" target="Yh4BVkky_7kEf2Jk04-v-9">
          <mxGeometry relative="1" as="geometry">
            <mxPoint x="170" y="330" as="sourcePoint" />
          </mxGeometry>
        </mxCell>
        <mxCell id="Yh4BVkky_7kEf2Jk04-v-1" value="NMPF" style="rounded=0;whiteSpace=wrap;html=1;" vertex="1" parent="1">
          <mxGeometry x="230" y="350" width="160" height="60" as="geometry" />
        </mxCell>
        <mxCell id="Yh4BVkky_7kEf2Jk04-v-2" value="&lt;h1&gt;Heading&lt;/h1&gt;&lt;p&gt;Lorem ipsum dolor sit amet, consectetur adipisicing elit, sed do eiusmod tempor incididunt ut labore et dolore magna aliqua.&lt;/p&gt;" style="text;html=1;strokeColor=none;fillColor=none;spacing=5;spacingTop=-20;whiteSpace=wrap;overflow=hidden;rounded=0;" vertex="1" parent="1">
          <mxGeometry x="380" y="10" width="190" height="120" as="geometry" />
        </mxCell>
        <mxCell id="Yh4BVkky_7kEf2Jk04-v-3" value="CONS. SEQUENCE" style="ellipse;whiteSpace=wrap;html=1;" vertex="1" parent="1">
          <mxGeometry x="20" y="160" width="90" height="50" as="geometry" />
        </mxCell>
        <mxCell id="Yh4BVkky_7kEf2Jk04-v-4" value="MSA" style="ellipse;whiteSpace=wrap;html=1;" vertex="1" parent="1">
          <mxGeometry x="25" y="210" width="80" height="50" as="geometry" />
        </mxCell>
        <mxCell id="Yh4BVkky_7kEf2Jk04-v-5" value="HMM PROFILE" style="ellipse;whiteSpace=wrap;html=1;" vertex="1" parent="1">
          <mxGeometry x="20" y="390" width="90" height="50" as="geometry" />
        </mxCell>
        <mxCell id="Yh4BVkky_7kEf2Jk04-v-6" value="SECONDARY STRUCTURE" style="ellipse;whiteSpace=wrap;html=1;" vertex="1" parent="1">
          <mxGeometry x="20" y="440" width="90" height="50" as="geometry" />
        </mxCell>
        <mxCell id="Yh4BVkky_7kEf2Jk04-v-7" value="TOPOLOGY PREDICTION" style="ellipse;whiteSpace=wrap;html=1;" vertex="1" parent="1">
          <mxGeometry x="20" y="490" width="90" height="60" as="geometry" />
        </mxCell>
        <mxCell id="Yh4BVkky_7kEf2Jk04-v-8" value="&lt;div&gt;PHYLOGENETIC ANNOTATION&lt;/div&gt;" style="ellipse;whiteSpace=wrap;html=1;" vertex="1" parent="1">
          <mxGeometry x="20" y="320" width="100" height="70" as="geometry" />
        </mxCell>
        <mxCell id="Yh4BVkky_7kEf2Jk04-v-9" value="&lt;div&gt;ECOSYSTEM ANNOTATION&lt;/div&gt;" style="ellipse;whiteSpace=wrap;html=1;direction=west;" vertex="1" parent="1">
          <mxGeometry x="20" y="550" width="90" height="50" as="geometry" />
        </mxCell>
        <mxCell id="Yh4BVkky_7kEf2Jk04-v-10" value="GEOGRAPHICAL DISTRIBUTION" style="ellipse;whiteSpace=wrap;html=1;" vertex="1" parent="1">
          <mxGeometry x="15" y="260" width="100" height="60" as="geometry" />
        </mxCell>
        <mxCell id="Yh4BVkky_7kEf2Jk04-v-16" value="" style="rounded=0;orthogonalLoop=1;jettySize=auto;html=1;entryX=0;entryY=0.5;entryDx=0;entryDy=0;shape=link;" edge="1" parent="1" source="Yh4BVkky_7kEf2Jk04-v-11" target="Yh4BVkky_7kEf2Jk04-v-1">
          <mxGeometry relative="1" as="geometry">
            <mxPoint x="190" y="135" as="targetPoint" />
          </mxGeometry>
        </mxCell>
        <mxCell id="Yh4BVkky_7kEf2Jk04-v-11" value="&lt;u&gt;&lt;b&gt;UNIQUE ID&lt;/b&gt;&lt;/u&gt;" style="ellipse;whiteSpace=wrap;html=1;" vertex="1" parent="1">
          <mxGeometry x="80" y="100" width="90" height="50" as="geometry" />
        </mxCell>
        <mxCell id="Yh4BVkky_7kEf2Jk04-v-30" value="" style="rounded=0;orthogonalLoop=1;jettySize=auto;html=1;shape=link;exitX=1;exitY=0.5;exitDx=0;exitDy=0;" edge="1" parent="1" source="Yh4BVkky_7kEf2Jk04-v-31" target="Yh4BVkky_7kEf2Jk04-v-29">
          <mxGeometry relative="1" as="geometry" />
        </mxCell>
        <mxCell id="Yh4BVkky_7kEf2Jk04-v-33" style="rounded=0;orthogonalLoop=1;jettySize=auto;html=1;shape=link;entryX=0.05;entryY=0.017;entryDx=0;entryDy=0;entryPerimeter=0;" edge="1" parent="1" source="Yh4BVkky_7kEf2Jk04-v-28" target="Yh4BVkky_7kEf2Jk04-v-1">
          <mxGeometry relative="1" as="geometry" />
        </mxCell>
        <mxCell id="Yh4BVkky_7kEf2Jk04-v-28" value="PROTEIN CLUSTER" style="ellipse;whiteSpace=wrap;html=1;" vertex="1" parent="1">
          <mxGeometry x="180" y="160" width="120" height="80" as="geometry" />
        </mxCell>
        <mxCell id="Yh4BVkky_7kEf2Jk04-v-29" value="&lt;div&gt;PROTEIN SEQUENCE&lt;/div&gt;" style="rounded=0;whiteSpace=wrap;html=1;" vertex="1" parent="1">
          <mxGeometry x="570" y="190" width="120" height="60" as="geometry" />
        </mxCell>
        <mxCell id="Yh4BVkky_7kEf2Jk04-v-32" value="" style="rounded=0;orthogonalLoop=1;jettySize=auto;html=1;shape=link;entryX=0;entryY=0.5;entryDx=0;entryDy=0;" edge="1" parent="1" target="Yh4BVkky_7kEf2Jk04-v-31">
          <mxGeometry relative="1" as="geometry">
            <mxPoint x="291.8267340539019" y="200.15484102096184" as="sourcePoint" />
            <mxPoint x="570" y="197" as="targetPoint" />
          </mxGeometry>
        </mxCell>
        <mxCell id="Yh4BVkky_7kEf2Jk04-v-31" value="BELONGS" style="rhombus;whiteSpace=wrap;html=1;" vertex="1" parent="1">
          <mxGeometry x="380" y="190" width="150" height="80" as="geometry" />
        </mxCell>
      </root>
    </mxGraphModel>
  </diagram>
</mxfile>
